<?xml version="1.0" encoding="UTF-8" standalone="no" ?>
<!DOCTYPE svg PUBLIC "-//W3C//DTD SVG 1.1//EN" "http://www.w3.org/Graphics/SVG/1.1/DTD/svg11.dtd">
<svg xmlns="http://www.w3.org/2000/svg" xmlns:xlink="http://www.w3.org/1999/xlink" version="1.1" width="1280" height="1024" viewBox="0 0 1280 1024" xml:space="preserve">
<desc>Created with Fabric.js 5.3.0</desc>
<defs>
</defs>
<g transform="matrix(1 0 0 1 640 512)" id="background-logo"  >
<rect style="stroke: none; stroke-width: 0; stroke-dasharray: none; stroke-linecap: butt; stroke-dashoffset: 0; stroke-linejoin: miter; stroke-miterlimit: 4; fill: rgb(255,255,255); fill-opacity: 0; fill-rule: nonzero; opacity: 1;"  paint-order="stroke"  x="-640" y="-512" rx="0" ry="0" width="1280" height="1024" />
</g>
<g transform="matrix(1.444940289479365 0 0 1.4449402894793648 291.32462733367856 512)" id="logo-logo"  >
<g style=""  paint-order="stroke"   >
		<g transform="matrix(0.487165800057785 0 0 0.487165800057785 56.18836915750603 -50.84825793973414)"  >
<linearGradient id="SVGID_1_84679" gradientUnits="userSpaceOnUse" gradientTransform="matrix(1 0 0 1 0 0)"  x1="478.2817993" y1="436.4459534" x2="619.3144531" y2="436.4459534">
<stop offset="3.0908499999999997%" style="stop-color:rgb(37,169,225);stop-opacity: 1"/>
<stop offset="11.282390000000001%" style="stop-color:rgb(38,142,206);stop-opacity: 1"/>
<stop offset="26.73804%" style="stop-color:rgb(40,95,173);stop-opacity: 1"/>
<stop offset="38.642450000000004%" style="stop-color:rgb(41,67,153);stop-opacity: 1"/>
<stop offset="45.472249999999995%" style="stop-color:rgb(41,56,145);stop-opacity: 1"/>
</linearGradient>
<path style="stroke: none; stroke-width: 1; stroke-dasharray: none; stroke-linecap: butt; stroke-dashoffset: 0; stroke-linejoin: miter; stroke-miterlimit: 4; fill: url(#SVGID_1_84679); fill-rule: nonzero; opacity: 1;"  paint-order="stroke"  transform=" translate(-548.7981262999999, -436.4459441006504)" d="M 576.4191895 420.9445801 L 478.2817994 360.0223999 L 478.2818299 360.0223999 C 496.4406129 352.4437866 523.8308716 357.7825623 543.2834473 364.3344727 L 609.7684327000001 388.722931 L 576.4191895 420.9445801 z M 588.0424805 438.9436035 C 585.059021 440.29168699999997 584.6355591 450.044281 581.5193482 451.4808655 L 594.0317382999999 514.6148682 L 594.8494262999999 516.5817871 C 598.6948241999999 512.581665 603.9326171999999 508.2720947 608.0432128999998 500.22756960000004 C 610.2974853999998 495.8296204 612.1980590999998 490.30456540000006 613.3473510999999 483.09985350000005 L 619.3144531999999 425.57296750000006 C 610.164856 429.329895 599.6008911 433.7941895 588.0424805 438.9436035 z" stroke-linecap="round" />
</g>
		<g transform="matrix(0.487165800057785 0 0 0.487165800057785 3.634206231722203 -9.622871469922359)"  >
<radialGradient id="SVGID_2_84680" gradientUnits="userSpaceOnUse" gradientTransform="matrix(2.5861919 0 0 2.5861917 -802.4222412 -875.4396973)"  cx="423.7658997" cy="497.9043579" r="138.7055664" fx="423.7658997" fy="497.9043579">
<stop offset="3.6495100000000003%" style="stop-color:rgb(254,225,37);stop-opacity: 1"/>
<stop offset="21.0859%" style="stop-color:rgb(250,186,34);stop-opacity: 1"/>
<stop offset="36.936730000000004%" style="stop-color:rgb(247,158,31);stop-opacity: 1"/>
<stop offset="46.030910000000006%" style="stop-color:rgb(246,147,30);stop-opacity: 1"/>
</radialGradient>
<path style="stroke: none; stroke-width: 1; stroke-dasharray: none; stroke-linecap: butt; stroke-dashoffset: 0; stroke-linejoin: miter; stroke-miterlimit: 4; fill: url(#SVGID_2_84680); fill-rule: nonzero; opacity: 1;"  paint-order="stroke"  transform=" translate(-440.92076110000005, -521.0688516711774)" d="M 608.0539551 500.2283325 C 605.3576660000001 478.2164306 598.4182739 457.50848390000004 588.0532227000001 438.9442138 C 394.9852905 526.4613037 344.309082 617.067749 347.580658 661.0322876 C 348.44259650000004 661.8720703 349.03891000000004 663.4386597 350.0555726 664.2120972 C 361.105713 672.5881958 374.60891730000003 678.3563233 388.3552247 682.4006958 C 388.13427740000003 674.2235718 388.5320741 663.902771 389.8801576 650.9078369 C 397.040619 581.4467773 490.679535 497.9519348 493.5966493 495.36624140000004 C 451.1216127 535.6052856 422.96112070000004 582.4308471 415.7096864 615.4515991000001 C 405.207184 663.2767334 428.1720887 689.8427734 428.1720887 689.8427734 L 437.395691 690.2020263 C 463.3856202 690.6219482 489.3755494 685.0968627000001 512.956482 673.8479003000001 C 541.333252 660.3004149000001 565.6657105 638.7968139000001 582.6386719000001 612.3428954000001 C 600.0536499000001 585.2036742000001 609.3358155000001 553.3130492000001 609.3358155000001 521.0909423 C 609.3358154 514.0188599 608.8937988 507.0572205 608.0539551 500.2283325 z M 440.1582336 351.9134216 C 355.9562988 351.9134216 286.1415405 413.4405822 273.1687011 493.9517822 C 275.35659780000003 492.78054810000003 277.6551208 491.58703610000003 280.10821530000004 490.3715515 C 331.42507930000005 464.7131958 459.16455070000006 455.89523310000004 459.16455070000006 455.89523310000004 C 403.0211181000001 464.25189200000005 356.21966540000005 475.93478390000007 324.74194330000006 493.90322870000006 C 301.55072020000006 507.14147940000004 289.88098140000005 524.177185 272.5057067000001 543.8320922 C 276.4396361000001 573.203247 287.9096679000001 600.1877441 304.92675770000005 622.7521361 C 304.92675770000005 622.7521361 344.55249010000006 556.5175780000001 368.50924670000006 538.8374022 C 392.4659728000001 521.1572264 549.2893065000001 432.7561949 549.2893065000001 432.7561949 L 576.2295531000001 420.556793 C 545.3996582 378.9199829 495.93927 351.9134216 440.1582336 351.9134216 z" stroke-linecap="round" />
</g>
		<g transform="matrix(0.487165800057785 0 0 0.487165800057785 52.983830335346454 6.9467997573248965)"  >
<linearGradient id="SVGID_3_84681" gradientUnits="userSpaceOnUse" gradientTransform="matrix(1 0 0 1 0 0)"  x1="545.2110596" y1="651.2831421" x2="531.9454956" y2="386.5480042">
<stop offset="3.6495100000000003%" style="stop-color:rgb(254,225,37);stop-opacity: 0.5"/>
<stop offset="18.8759%" style="stop-color:rgb(251,230,92);stop-opacity: 0.3925798"/>
<stop offset="38.317679999999996%" style="stop-color:rgb(246,235,156);stop-opacity: 0.2554206"/>
<stop offset="54.75128%" style="stop-color:rgb(244,239,203);stop-opacity: 0.1394836"/>
<stop offset="67.31934000000001%" style="stop-color:rgb(242,241,231);stop-opacity: 0.0508176"/>
<stop offset="74.52253%" style="stop-color:rgb(241,242,242);stop-opacity: 0"/>
</linearGradient>
<path style="stroke: none; stroke-width: 1; stroke-dasharray: none; stroke-linecap: butt; stroke-dashoffset: 0; stroke-linejoin: miter; stroke-miterlimit: 4; fill: url(#SVGID_3_84681); fill-rule: nonzero; opacity: 1;"  paint-order="stroke"  transform=" translate(-542.2202039134543, -555.0812376499999)" d="M 533.3536987 642.8851318 C 518.8877563 652.5034178999999 503.3175354 659.1218872 487.3472595 662.9234008 C 492.4692688 660.3742065 497.5045471 657.4373779 502.3977966 654.1838988 C 565.9384765 611.9364012 584.7087402 527.5745847999999 546.3204956 462.65393049999994 L 574.7149658 447.23907449999996 C 616.4226074 512.6688232 598.2512817 599.7354736 533.3536987 642.8851318 z" stroke-linecap="round" />
</g>
		<g transform="matrix(0.487165800057785 0 0 0.487165800057785 -1.9213095671305496 11.483412401907827)"  >
<path style="stroke: none; stroke-width: 1; stroke-dasharray: none; stroke-linecap: butt; stroke-dashoffset: 0; stroke-linejoin: miter; stroke-miterlimit: 4; fill: rgb(242,125,47); fill-rule: nonzero; opacity: 1;"  paint-order="stroke"  transform=" translate(-429.51701355, -564.39349365)" d="M 428.2903137 689.5806274 L 428.1720886 689.8427734 C 426.1612854 689.7741699000001 418.1685791 689.0529174000001 408.6875 687.2627563000001 C 402.0352783 685.9809570000001 395.1621399 684.4117431000001 388.3552246 682.4006958000001 C 388.1342773 674.2235718000001 388.53207399999997 663.9027710000001 389.8801575 650.9078369000001 C 397.04061889999997 581.4467773000001 490.6795349 497.9519348000001 493.5966492 495.36624140000015 C 395.8771973 598.4475708 428.2903137 689.5806274 428.2903137 689.5806274 z M 280.1082153 490.3715515 C 277.65512079999996 491.58703610000003 275.3565979 492.78054810000003 273.16870109999996 493.9517822 C 271.73226919999996 502.7919006 270.98080439999995 511.85308840000005 270.98080439999995 521.0909424 C 270.98080439999995 528.8039551 271.48904409999994 536.4064331000001 272.50570669999996 543.8320923 C 298.35092149999997 518.0311279 354.12194819999996 478.6805725 459.16455069999995 455.8952332 C 459.1645508 455.8952332 331.4250793 464.7131958 280.1082153 490.3715515 z M 588.0532227 438.9442139 C 585.0696412 440.29245000000003 581.9976807 441.6626587 578.8815918 443.0990906 C 567.8415527000001 448.1882019 556.8721314000001 453.4135132 546.019165 458.892334 C 520.9685058 471.5381775 499.33120720000005 483.4039002 475.53295890000004 498.2774048 C 465.11032100000006 504.7934876 454.22738640000006 511.6777039 444.0086974 518.5104981 C 411.8418883 540.0191040999999 379.3159789 563.9957886 357.02932730000003 596.1918334999999 C 355.814453 597.9468383999999 354.6404418 599.7301024999999 353.51571650000005 601.5442504999999 C 344.98181150000005 615.3093261999999 336.87200920000004 634.2901000999999 341.2416686 650.7301635999999 C 343.38888540000005 658.8087157999998 349.0429381 664.8765258999998 356.895172 668.8951415999999 C 356.3894347 632.5942382999999 373.3971251 597.9145507999999 396.7984313 570.1586303999999 C 421.0219726 541.4275512999999 452.0325927 517.6222533999999 483.0811156 496.7798766999999 C 514.3600463 475.7828368999999 547.5428466 457.67800899999986 581.7110594 441.85043329999985 C 583.821106 440.8730164 585.9341431 439.9017944 588.0532227 438.9442139 z" stroke-linecap="round" />
</g>
		<g transform="matrix(0.487165800057785 0 0 0.487165800057785 0 4.3010873590949075)"  >
<linearGradient id="SVGID_4_84682" gradientUnits="userSpaceOnUse" gradientTransform="matrix(1 0 0 1 0 0)"  x1="194.1934052" y1="549.6503906" x2="672.7283325" y2="549.6503906">
<stop offset="3.0908499999999997%" style="stop-color:rgb(37,169,225);stop-opacity: 1"/>
<stop offset="11.282390000000001%" style="stop-color:rgb(38,142,206);stop-opacity: 1"/>
<stop offset="26.73804%" style="stop-color:rgb(40,95,173);stop-opacity: 1"/>
<stop offset="38.642450000000004%" style="stop-color:rgb(41,67,153);stop-opacity: 1"/>
<stop offset="45.472249999999995%" style="stop-color:rgb(41,56,145);stop-opacity: 1"/>
</linearGradient>
<path style="stroke: none; stroke-width: 1; stroke-dasharray: none; stroke-linecap: butt; stroke-dashoffset: 0; stroke-linejoin: miter; stroke-miterlimit: 4; fill: url(#SVGID_4_84682); fill-rule: nonzero; opacity: 1;"  paint-order="stroke"  transform=" translate(-433.46086504142795, -549.6504122556142)" d="M 671.9564209 380.5923157 C 671.3873901000001 381.5762024 670.581665 382.43319699999995 669.7426758 383.21264649999995 C 666.2497559000001 386.45776369999993 661.7876587000001 388.5802001999999 657.5664673 390.74057009999996 C 648.1426392 395.56353759999996 638.2844849 399.6650696 628.6442261 404.04699709999994 C 614.8908692 410.39782719999994 601.1461792 416.76797489999996 587.4500733 423.2416076999999 C 573.8300171 429.67929079999993 560.2581177 436.2200927999999 546.7756959 442.94171149999994 C 533.1598511999999 449.72982799999994 519.6356202 456.70297249999993 506.24313359999996 463.92233279999994 C 497.91720589999994 468.41052249999996 489.642212 472.99337769999994 481.4265137 477.68035889999993 C 449.5612183 495.85925289999994 413.8884278 518.2366943 385.484375 541.5125122 C 367.4367371 556.3017577999999 350.1885681 572.1028441999999 335.5154724 590.3142089999999 C 320.9561767 608.3919677999999 305.5955505 633.2852172999999 314.5739136 657.2276610999999 C 320.5372315 672.9642333999999 337.40539550000005 682.4766234999998 362.03079230000003 685.9656981999999 C 367.3962708 653.0443724999999 393.40670780000005 605.6845702999999 432.49435430000005 556.5003661999999 C 447.7870179000001 537.2574463 464.96328740000007 519.5833129999999 483.7234192000001 503.70239259999994 L 493.65206910000006 495.29757689999997 C 492.25085450000006 496.81481929999995 490.85244750000004 498.34567259999994 489.45742800000005 499.89016719999995 C 418.34716800000007 578.6235350999999 381.2976990000001 665.3080444 408.0869751 693.9449463 C 421.2722473 708.0328979999999 447.4415894 705.4999389999999 479.63574220000004 689.6759644 C 429.00613400000003 726.6657105 385.70733640000003 740.3097534999999 368.4225159 720.9552613 C 362.897583 714.7727662 360.5675049 705.9116212 361.0609131 694.9834595 C 303.9743042 703.4798584 263.5493469 695.5660401 254.5054169 669.9353027999999 C 248.0806427 651.7780151999999 258.4219361 627.3948975 281.15493779999997 600.7268677 C 228.06213379999997 592.0364989999999 194.27763369999997 573.659729 194.19360359999996 549.2264405 C 194.05776989999995 513.0136719 266.88177499999995 478.82260139999994 365.16088879999995 461.57296759999997 C 391.5144655 456.9474793 418.26895149999996 454.96017459999996 445.0183107 455.57727059999996 L 459.17504899999994 455.90383919999994 C 456.9380494999999 456.1272278999999 454.69335949999993 456.36410529999995 452.44165059999995 456.61431889999994 C 337.65951559999996 469.37173469999993 244.87352009999995 513.2068482 246.00617999999994 555.8789062999999 C 246.44619769999994 572.3068238 260.70938129999996 586.189087 284.92633079999996 596.4180908999999 C 320.9706116 556.0986328 386.8279114 512.5516968 461 472.612915 C 474.41934200000003 465.3870849 491.9677429 455.0645141 491.9677429 455.0645141 L 468.25903320000003 427.6282348 C 473.13839720000004 425.56118769999995 478.66763310000005 425.6727294 483.45956420000005 427.9346923 L 515.1758423 440.6586608 C 516.258728 439.9735412 604.6398316 387.9136352 626.9352417 375.8391112 C 632.9394531 372.58743269999997 641.8519287 369.5395507 648.6517944 369.5712584 C 655.7114257 369.60412579999996 661.3278808 369.74157699999995 667.9208983999999 372.45712269999996 C 668.9782104 372.89260849999994 670.0265502999999 373.4031371 670.8668822999999 374.18023669999997 C 672.3619994999999 375.56320179999994 673.1602172999999 377.408264 672.4871826 379.4259337 C 672.3509521 379.8344116 672.1704102 380.2223206 671.9564209 380.5923157 z" stroke-linecap="round" />
</g>
</g>
</g>
<g transform="matrix(1.9211538461538462 0 0 1.9211538461538462 750.9869824147828 471.21652545457124)" id="text-logo"  >
<g style=""  paint-order="stroke"   >
		<g transform="matrix(1 0 0 1 0 0)" id="text-logo-path-0"  >
<path style="stroke: none; stroke-width: 0; stroke-dasharray: none; stroke-linecap: butt; stroke-dashoffset: 0; stroke-linejoin: miter; stroke-miterlimit: 4; fill: rgb(40,95,173); fill-rule: nonzero; opacity: 1;"  paint-order="stroke"  transform=" translate(-83.945, 25.675)" d="M 5.46 -6.56 L 5.46 -6.56 L 5.46 -43.11 Q 5.46 -46.72 7.57 -48.81 Q 9.68 -50.9 13.29 -50.9 L 13.29 -50.9 L 41.26 -50.9 Q 41.84 -49.96 42.29 -48.42 Q 42.74 -46.88 42.74 -45.2 L 42.74 -45.2 Q 42.74 -41.92 41.36 -40.52 Q 39.99 -39.13 37.65 -39.13 L 37.65 -39.13 L 19.97 -39.13 L 19.97 -29.65 L 38.39 -29.65 Q 39.05 -28.71 39.52 -27.21 Q 39.99 -25.72 39.99 -24.04 L 39.99 -24.04 Q 39.99 -20.84 38.6 -19.44 Q 37.2 -18.05 34.86 -18.05 L 34.86 -18.05 L 20.18 -18.05 L 20.18 -0.33 Q 19.24 -0.08 17.27 0.16 Q 15.3 0.41 13.37 0.41 L 13.37 0.41 Q 11.44 0.41 9.97 0.12 Q 8.49 -0.16 7.49 -0.92 Q 6.48 -1.68 5.97 -3.01 Q 5.46 -4.35 5.46 -6.56 Z M 66.84 -7.55 L 66.84 -7.55 L 66.84 -50.98 Q 67.78 -51.15 69.79 -51.45 Q 71.8 -51.76 73.65 -51.76 L 73.65 -51.76 Q 75.58 -51.76 77.05 -51.45 Q 78.53 -51.15 79.53 -50.39 Q 80.54 -49.63 81.05 -48.3 Q 81.56 -46.96 81.56 -44.79 L 81.56 -44.79 L 81.56 -11.61 L 100.8 -11.61 Q 101.37 -10.66 101.87 -9.11 Q 102.36 -7.55 102.36 -5.87 L 102.36 -5.87 Q 102.36 -2.5 100.94 -1.13 Q 99.53 0.25 97.15 0.25 L 97.15 0.25 L 74.67 0.25 Q 71.06 0.25 68.95 -1.85 Q 66.84 -3.94 66.84 -7.55 Z M 116.45 -47.13 L 116.45 -47.13 Q 117.56 -48.64 119.45 -49.9 Q 121.33 -51.15 124.12 -51.15 L 124.12 -51.15 Q 127.4 -51.15 129.45 -49.81 Q 131.5 -48.48 133.35 -44.79 L 133.35 -44.79 L 140.32 -30.76 L 140.81 -30.76 Q 142 -33.35 142.89 -35.5 Q 143.77 -37.65 144.61 -39.79 Q 145.45 -41.92 146.37 -44.24 Q 147.3 -46.55 148.48 -49.55 L 148.48 -49.55 Q 150 -50.29 151.85 -50.72 Q 153.69 -51.15 155.38 -51.15 L 155.38 -51.15 Q 158.33 -51.15 160.38 -49.59 Q 162.43 -48.03 162.43 -44.95 L 162.43 -44.95 Q 162.43 -43.93 162 -42.49 Q 161.57 -41.06 160.07 -38.17 Q 158.57 -35.27 155.66 -30.31 Q 152.75 -25.35 147.79 -17.39 L 147.79 -17.39 L 147.79 -0.33 Q 146.84 -0.08 144.94 0.16 Q 143.03 0.41 141.18 0.41 L 141.18 0.41 Q 137.33 0.41 135.38 -0.88 Q 133.43 -2.17 133.43 -6.4 L 133.43 -6.4 L 133.43 -17.72 Q 131.34 -20.84 128.9 -24.61 Q 126.46 -28.38 124.12 -32.34 Q 121.78 -36.3 119.75 -40.11 Q 117.72 -43.93 116.45 -47.13 Z" stroke-linecap="round" />
</g>
</g>
</g>
<g transform="matrix(1.9211538461538462 0 0 1.9211538461538462 748.2298264652635 587.4443777724799)" id="tagline-6892c397-dbeb-40db-8133-548c9ceeb819-logo"  >
<g style=""  paint-order="stroke"   >
		<g transform="matrix(1 0 0 1 5.684342e-14 0)" id="tagline-6892c397-dbeb-40db-8133-548c9ceeb819-logo-path-0"  >
<path style="stroke: none; stroke-width: 0; stroke-dasharray: none; stroke-linecap: butt; stroke-dashoffset: 0; stroke-linejoin: miter; stroke-miterlimit: 4; fill: rgb(38,142,206); fill-rule: nonzero; opacity: 1;"  paint-order="stroke"  transform=" translate(-139.855, 8.23)" d="M 5.86 0.24 L 5.2 0.24 L 5.2 -14.48 L 0.39 -14.48 Q 0.39 -16.46 2.29 -16.46 L 2.29 -16.46 L 12.26 -16.46 Q 12.26 -14.48 10.35 -14.48 L 10.35 -14.48 L 7.47 -14.48 L 7.47 -2.03 Q 7.47 0.24 5.86 0.24 L 5.86 0.24 Z M 23.6 0.24 L 22.97 0.24 L 22.97 -14.28 Q 22.97 -16.46 25.17 -16.46 L 25.17 -16.46 L 28.41 -16.46 Q 33.81 -16.46 33.81 -11.45 L 33.81 -11.45 Q 33.81 -7.62 30.56 -6.88 L 30.56 -6.88 L 35.03 0.24 L 33.71 0.24 Q 32.39 0.24 31.88 -0.59 L 31.88 -0.59 L 28.27 -6.57 L 25.21 -6.57 L 25.21 -2 Q 25.21 0.24 23.6 0.24 L 23.6 0.24 Z M 28.27 -14.6 L 28.27 -14.6 L 25.78 -14.6 Q 25.21 -14.6 25.21 -14.06 L 25.21 -14.06 L 25.21 -8.4 L 28.29 -8.4 Q 30.02 -8.4 30.78 -9.13 Q 31.54 -9.86 31.54 -11.47 L 31.54 -11.47 Q 31.54 -13.11 30.77 -13.85 Q 30 -14.6 28.27 -14.6 Z M 46.69 0.24 L 45.52 0.24 L 50.31 -14.58 Q 50.99 -16.7 52.48 -16.7 L 52.48 -16.7 L 53.97 -16.7 L 59.29 0.24 L 58.12 0.24 Q 56.95 0.24 56.31 -1.83 L 56.31 -1.83 L 55.65 -3.91 L 49.16 -3.91 L 48.5 -1.83 Q 47.84 0.24 46.69 0.24 L 46.69 0.24 Z M 52.43 -14.23 L 49.74 -5.76 L 55.09 -5.76 L 52.43 -14.23 Z M 75.08 0.24 L 73.59 0.24 L 68.39 -16.7 L 69.59 -16.7 Q 70.76 -16.7 71.3 -14.87 L 71.3 -14.87 L 75.18 -1.95 L 78.94 -14.87 Q 79.47 -16.7 80.65 -16.7 L 80.65 -16.7 L 81.82 -16.7 L 76.89 -0.81 Q 76.57 0.24 75.08 0.24 L 75.08 0.24 Z M 95.78 0 Q 92.68 0 92.68 -3.34 L 92.68 -3.34 L 92.68 -13.53 Q 92.68 -16.46 95.61 -16.46 L 95.61 -16.46 L 102.54 -16.46 Q 102.54 -14.55 100.68 -14.55 L 100.68 -14.55 L 96.19 -14.55 Q 94.92 -14.55 94.92 -13.28 L 94.92 -13.28 L 94.92 -9.33 L 100.44 -9.33 Q 101.42 -9.33 101.42 -8.37 L 101.42 -8.37 Q 101.42 -7.42 100.44 -7.42 L 100.44 -7.42 L 94.92 -7.42 L 94.92 -3.76 Q 94.92 -1.9 96.78 -1.9 L 96.78 -1.9 L 100.73 -1.9 Q 102.61 -1.9 102.61 0 L 102.61 0 L 95.78 0 Z M 117.4 0 Q 114.33 0 114.33 -3.34 L 114.33 -3.34 L 114.33 -14.43 Q 114.33 -16.7 116.6 -16.7 L 116.6 -16.7 L 116.6 -3.74 Q 116.6 -1.9 118.43 -1.9 L 118.43 -1.9 L 121.75 -1.9 Q 123.65 -1.9 123.65 0 L 123.65 0 L 117.4 0 Z M 151.11 0.24 L 149.93 0.24 L 154.72 -14.58 Q 155.4 -16.7 156.89 -16.7 L 156.89 -16.7 L 158.38 -16.7 L 163.7 0.24 L 162.53 0.24 Q 161.36 0.24 160.73 -1.83 L 160.73 -1.83 L 160.07 -3.91 L 153.57 -3.91 L 152.91 -1.83 Q 152.25 0.24 151.11 0.24 L 151.11 0.24 Z M 156.84 -14.23 L 154.16 -5.76 L 159.5 -5.76 L 156.84 -14.23 Z M 181.25 0.34 L 181.25 0.34 Q 177.52 0.34 175.77 -1.7 Q 174.03 -3.74 174.03 -8.06 L 174.03 -8.06 Q 174.03 -16.8 181.42 -16.8 L 181.42 -16.8 Q 184.06 -16.8 185.96 -16.09 L 185.96 -16.09 Q 185.67 -14.38 184.25 -14.38 L 184.25 -14.38 Q 184.06 -14.38 183.27 -14.61 Q 182.47 -14.84 181.64 -14.84 L 181.64 -14.84 Q 178.88 -14.84 177.63 -13.23 Q 176.37 -11.62 176.37 -8.06 L 176.37 -8.06 Q 176.37 -5.71 176.87 -4.28 Q 177.37 -2.86 178.48 -2.22 Q 179.59 -1.59 181.42 -1.59 L 181.42 -1.59 Q 184.11 -1.59 184.11 -2.66 L 184.11 -2.66 L 184.11 -6.35 Q 184.11 -6.88 183.57 -6.88 L 183.57 -6.88 L 182.42 -6.88 Q 180.5 -6.88 180.5 -8.76 L 180.5 -8.76 L 184.06 -8.76 Q 186.23 -8.76 186.23 -6.59 L 186.23 -6.59 L 186.23 -2.32 Q 186.23 -0.49 184.76 -0.07 Q 183.28 0.34 181.25 0.34 Z M 201.95 0 Q 198.85 0 198.85 -3.34 L 198.85 -3.34 L 198.85 -13.53 Q 198.85 -16.46 201.78 -16.46 L 201.78 -16.46 L 208.71 -16.46 Q 208.71 -14.55 206.86 -14.55 L 206.86 -14.55 L 202.36 -14.55 Q 201.09 -14.55 201.09 -13.28 L 201.09 -13.28 L 201.09 -9.33 L 206.61 -9.33 Q 207.59 -9.33 207.59 -8.37 L 207.59 -8.37 Q 207.59 -7.42 206.61 -7.42 L 206.61 -7.42 L 201.09 -7.42 L 201.09 -3.76 Q 201.09 -1.9 202.95 -1.9 L 202.95 -1.9 L 206.91 -1.9 Q 208.79 -1.9 208.79 0 L 208.79 0 L 201.95 0 Z M 221.23 0.24 L 220.67 0.24 L 220.67 -14.87 Q 220.67 -16.7 222.45 -16.7 L 222.45 -16.7 L 223.26 -16.7 L 230.73 -3.13 L 230.73 -14.6 Q 230.73 -16.7 232.27 -16.7 L 232.27 -16.7 L 232.83 -16.7 L 232.83 0.24 L 231.53 0.24 Q 230.24 0.24 229.31 -1.46 L 229.31 -1.46 L 222.77 -13.35 L 222.77 -1.88 Q 222.77 0.24 221.23 0.24 L 221.23 0.24 Z M 252.3 0.34 L 252.3 0.34 Q 248.81 0.34 247.13 -1.71 Q 245.44 -3.76 245.44 -6.62 L 245.44 -6.62 L 245.44 -9.47 Q 245.44 -12.33 247.21 -14.56 Q 248.98 -16.8 252.45 -16.8 L 252.45 -16.8 Q 254.82 -16.8 256.53 -16.16 L 256.53 -16.16 Q 256.04 -14.48 254.87 -14.48 L 254.87 -14.48 Q 254.7 -14.48 254.11 -14.66 Q 253.52 -14.84 252.69 -14.84 L 252.69 -14.84 Q 250.18 -14.84 248.98 -13.17 Q 247.79 -11.5 247.79 -9.2 L 247.79 -9.2 L 247.79 -6.88 Q 247.79 -4.59 248.91 -3.1 Q 250.03 -1.61 252.57 -1.61 L 252.57 -1.61 Q 253.28 -1.61 254.01 -1.82 Q 254.75 -2.03 254.92 -2.03 L 254.92 -2.03 Q 256.11 -2.03 256.55 -0.32 L 256.55 -0.32 Q 254.96 0.34 252.3 0.34 Z M 272.24 0.24 L 271.58 0.24 L 271.58 -6.05 L 266.14 -16.7 L 267.39 -16.7 Q 268.61 -16.7 269.12 -15.65 L 269.12 -15.65 L 272.78 -8.33 L 276.52 -15.65 Q 277.05 -16.7 278.2 -16.7 L 278.2 -16.7 L 279.32 -16.7 L 273.86 -6.2 L 273.86 -2 Q 273.86 0.24 272.24 0.24 L 272.24 0.24 Z" stroke-linecap="round" />
</g>
</g>
</g>
</svg>